<svg width="50" height="50" viewBox="0 0 50 50" fill="none" xmlns="http://www.w3.org/2000/svg">
<path d="M50 25C50 38.8071 38.8071 50 25 50C11.1929 50 0 38.8071 0 25C0 11.1929 11.1929 0 25 0C38.8071 0 50 11.1929 50 25Z" fill="#C4C4C4"/>
<path d="M16.9393 23.9393C16.3536 24.5251 16.3536 25.4749 16.9393 26.0607L26.4853 35.6066C27.0711 36.1924 28.0208 36.1924 28.6066 35.6066C29.1924 35.0208 29.1924 34.0711 28.6066 33.4853L20.1213 25L28.6066 16.5147C29.1924 15.9289 29.1924 14.9792 28.6066 14.3934C28.0208 13.8076 27.0711 13.8076 26.4853 14.3934L16.9393 23.9393ZM19 23.5H18V26.5H19V23.5Z" fill="white"/>
</svg>
