<svg width="79" height="79" viewBox="0 0 79 79" fill="none" xmlns="http://www.w3.org/2000/svg">
<rect x="1" y="1" width="76.9318" height="76.9231" rx="5" fill="white" stroke="#919191" stroke-width="2"/>
<path d="M21.5 21.1038H55.5V57.3524C55.4992 57.3561 55.4984 57.3602 55.4974 57.3646C55.49 57.3991 55.4762 57.4555 55.4527 57.5309C55.4056 57.6816 55.3193 57.9083 55.1658 58.1864C54.8598 58.7406 54.2808 59.5099 53.1926 60.2921C51.0122 61.8593 46.7546 63.5 38.5 63.5C30.2454 63.5 25.9878 61.8593 23.8075 60.2921C22.7192 59.5099 22.1402 58.7406 21.8342 58.1864C21.6807 57.9083 21.5944 57.6816 21.5473 57.5309C21.5238 57.4555 21.51 57.3991 21.5026 57.3646C21.5016 57.3602 21.5008 57.3561 21.5 57.3524V21.1038Z" fill="#E5E5E5" stroke="#C4C4C4"/>
<path d="M55.5 21.0755C55.5 21.8726 55.1025 22.6812 54.2793 23.4681C53.4548 24.2563 52.2352 24.9891 50.687 25.615C47.5931 26.8659 43.2846 27.6509 38.5 27.6509C33.7154 27.6509 29.4069 26.8659 26.313 25.615C24.7648 24.9891 23.5452 24.2563 22.7207 23.4681C21.8975 22.6812 21.5 21.8726 21.5 21.0755C21.5 20.2783 21.8975 19.4697 22.7207 18.6828C23.5452 17.8947 24.7648 17.1619 26.313 16.5359C29.4069 15.285 33.7154 14.5 38.5 14.5C43.2846 14.5 47.5931 15.285 50.687 16.5359C52.2352 17.1619 53.4548 17.8947 54.2793 18.6828C55.1025 19.4697 55.5 20.2783 55.5 21.0755Z" fill="#E5E5E5" stroke="#C4C4C4"/>
</svg>
