<svg width="79" height="79" viewBox="0 0 79 79" fill="none" xmlns="http://www.w3.org/2000/svg">
<rect x="1" y="1" width="76.9318" height="76.9231" rx="5" fill="#727272" stroke="#727272" stroke-width="2"/>
<path d="M20.5 26.5H57.5V63.5H20.5V26.5Z" stroke="white" stroke-width="3"/>
<rect x="29" y="24" width="20" height="5" fill="#727272"/>
<path d="M40.0607 9.93934C39.4749 9.35355 38.5251 9.35355 37.9393 9.93934L28.3934 19.4853C27.8076 20.0711 27.8076 21.0208 28.3934 21.6066C28.9792 22.1924 29.9289 22.1924 30.5147 21.6066L39 13.1213L47.4853 21.6066C48.0711 22.1924 49.0208 22.1924 49.6066 21.6066C50.1924 21.0208 50.1924 20.0711 49.6066 19.4853L40.0607 9.93934ZM40.5 44L40.5 11H37.5L37.5 44H40.5Z" fill="white"/>
</svg>
