<svg width="80" height="80" viewBox="0 0 80 80" fill="none" xmlns="http://www.w3.org/2000/svg">
<rect x="1.88403" y="1.53845" width="76.9318" height="76.9231" rx="5" fill="white" stroke="#919191" stroke-width="2"/>
<path d="M21.6171 60.6993V23.4643L45.2933 29.0562V66.2911L21.6171 60.6993Z" fill="#E5E5E5" stroke="#C4C4C4"/>
<path d="M46.2932 65.9568V28.9193L59.0829 19.8711V56.9086L46.2932 65.9568Z" fill="#E5E5E5" stroke="#C4C4C4"/>
<path d="M46.2932 50.6266V39.1818L59.0829 30.1337V41.5784L46.2932 50.6266Z" fill="#FA8DB5" stroke="#DB5B8A"/>
<path d="M21.6171 45.369V33.7269L45.2933 39.3187V50.9609L21.6171 45.369Z" fill="#FA8DB5" stroke="#DB5B8A"/>
<path d="M22.3106 22.6007L35.0113 13.6154L58.3895 19.1369L45.6887 28.1222L22.3106 22.6007Z" fill="#E5E5E5" stroke="#C4C4C4"/>
<path d="M24.751 24.2309L40.3501 21.2781L55.9491 24.2309L66.4948 32.0766L68.7502 42.1896L62.1191 51.5503L48.4868 57.1981H32.2133L18.581 51.5503L11.9499 42.1896L14.2053 32.0766L24.751 24.2309Z" fill="#FFECAA" fill-opacity="0.5" stroke="#D6C382"/>
</svg>
