<svg width="79" height="79" viewBox="0 0 79 79" fill="none" xmlns="http://www.w3.org/2000/svg">
<rect x="1" y="1" width="76.9318" height="76.9231" rx="5" fill="white" stroke="#919191" stroke-width="2"/>
<path d="M26.8876 60.1609V22.926L50.5638 28.5178V65.7528L26.8876 60.1609Z" fill="#E5E5E5" stroke="#C4C4C4"/>
<path d="M51.5637 65.4184V28.3809L64.3534 19.3327V56.3702L51.5637 65.4184Z" fill="#E5E5E5" stroke="#C4C4C4"/>
<path d="M51.5637 50.0881V38.6434L64.3534 29.5952V41.0399L51.5637 50.0881Z" fill="#E0A9DE" stroke="#B061AD"/>
<path d="M28.8109 53.4564V42.0406L36.658 36.1068V47.5211L28.8109 53.4564Z" fill="#C1E0A9" stroke="#80A95F"/>
<path d="M15.3477 50.2382L15.3478 38.5859L27.8108 42.1464L27.8108 53.7987L15.3477 50.2382Z" fill="#C1E0A9" stroke="#80A95F"/>
<path d="M37.658 47.3771V35.7381L50.5637 38.7805V50.4226L37.658 47.3771Z" fill="#E0A9DE" stroke="#B061AD"/>
<path d="M27.5811 22.0623L40.2819 13.0769L63.66 18.5984L50.9592 27.5837L27.5811 22.0623Z" fill="#E5E5E5" stroke="#C4C4C4"/>
<path d="M16.0632 37.7503L24.927 32.1844L36.0508 35.3126L28.2088 41.2201L16.0632 37.7503Z" fill="#C1E0A9" stroke="#80A95F"/>
</svg>
