<svg width="50" height="50" viewBox="0 0 50 50" fill="none" xmlns="http://www.w3.org/2000/svg">
<circle cx="25" cy="25" r="25" fill="#C4C4C4"/>
<path d="M22.5781 29.5938C22.599 28.3542 22.7396 27.375 23 26.6562C23.2604 25.9375 23.7917 25.1406 24.5938 24.2656L26.6406 22.1562C27.5156 21.1667 27.9531 20.1042 27.9531 18.9688C27.9531 17.875 27.6667 17.0208 27.0938 16.4062C26.5208 15.7812 25.6875 15.4688 24.5938 15.4688C23.5312 15.4688 22.6771 15.75 22.0312 16.3125C21.3854 16.875 21.0625 17.6302 21.0625 18.5781H18.1719C18.1927 16.8906 18.7917 15.5312 19.9688 14.5C21.1562 13.4583 22.6979 12.9375 24.5938 12.9375C26.5625 12.9375 28.0938 13.4688 29.1875 14.5312C30.2917 15.5833 30.8438 17.0312 30.8438 18.875C30.8438 20.6979 30 22.4948 28.3125 24.2656L26.6094 25.9531C25.849 26.7969 25.4688 28.0104 25.4688 29.5938H22.5781ZM22.4531 34.5469C22.4531 34.0781 22.5938 33.6875 22.875 33.375C23.1667 33.0521 23.5938 32.8906 24.1562 32.8906C24.7188 32.8906 25.1458 33.0521 25.4375 33.375C25.7292 33.6875 25.875 34.0781 25.875 34.5469C25.875 35.0156 25.7292 35.4062 25.4375 35.7188C25.1458 36.0208 24.7188 36.1719 24.1562 36.1719C23.5938 36.1719 23.1667 36.0208 22.875 35.7188C22.5938 35.4062 22.4531 35.0156 22.4531 34.5469Z" fill="white"/>
</svg>
