<svg width="79" height="79" viewBox="0 0 79 79" fill="none" xmlns="http://www.w3.org/2000/svg">
<rect x="1" y="1" width="76.9318" height="76.9231" rx="5" fill="white" stroke="#919191" stroke-width="2"/>
<line x1="20" y1="66" x2="70" y2="66" stroke="#919191" stroke-width="2"/>
<path d="M9.08481 21.2905C9.41958 19.3174 10.7438 17.3823 13.0244 15.8428C15.691 14.0427 19.3653 13 23.2439 13C26.986 13 29.0261 14.1851 31.8308 16.0785C33.131 16.9561 33.9166 17.9024 34.3877 18.898C34.7339 19.6296 34.9266 20.4229 35.0057 21.2905H23.2439H9.08481Z" fill="#E5E5E5" stroke="#C4C4C4" stroke-width="2"/>
<path d="M35.0355 29.7806C34.9617 32.2425 34.5278 34.6668 32.4406 36.0758C29.8501 37.8245 27.2655 38.071 23.244 38.071C19.3654 38.071 15.6911 37.0283 13.0245 35.2282C10.7439 33.6887 9.41967 31.7536 9.0849 29.7805H23.244L35.0355 29.7806Z" fill="#E5E5E5" stroke="#C4C4C4" stroke-width="2"/>
<path d="M35.0488 13V38.0803H24.8537V13H35.0488Z" fill="#E5E5E5" stroke="#C4C4C4" stroke-width="2"/>
<path d="M56.049 21V54H46.049V21H56.049Z" fill="#E5E5E5" stroke="#C4C4C4" stroke-width="2"/>
<path d="M46.049 21.0001V29.8322H36.049V21.0001H46.049Z" fill="#E5E5E5" stroke="#C4C4C4" stroke-width="2"/>
<path d="M38 54H64V64H38V54Z" fill="#FF7A7A" stroke="#CD3C3C" stroke-width="2"/>
</svg>
