<svg width="79" height="79" viewBox="0 0 79 79" fill="none" xmlns="http://www.w3.org/2000/svg">
<rect x="1" y="1" width="76.9318" height="76.9231" rx="5" fill="white" stroke="#919191" stroke-width="2"/>
<line x1="13" y1="66" x2="63" y2="66" stroke="#919191" stroke-width="2"/>
<path d="M28.2905 63.9642C26.3174 63.6294 24.3823 62.3051 22.8428 60.0246C21.0427 57.358 20 53.6837 20 49.805C20 46.063 21.1851 44.0229 23.0785 41.2182C23.9562 39.918 24.9024 39.1324 25.898 38.6613C26.6296 38.3151 27.4229 38.1224 28.2905 38.0433V49.805V63.9642Z" fill="#FF7A7A" stroke="#CD3C3C" stroke-width="2"/>
<path d="M36.7806 38.0134C39.2425 38.0872 41.6668 38.5211 43.0758 40.6083C44.8245 43.1988 45.071 45.7834 45.071 49.8049C45.071 53.6836 44.0283 57.3578 42.2282 60.0244C40.6887 62.305 38.7536 63.6292 36.7805 63.964V49.8049L36.7806 38.0134Z" fill="#FF7A7A" stroke="#CD3C3C" stroke-width="2"/>
<path d="M20 38.0002H45.0803V48.1953H20V38.0002Z" fill="#FF7A7A" stroke="#CD3C3C" stroke-width="2"/>
<path d="M28 17H54V27H28V17Z" fill="#FF7A7A" stroke="#CD3C3C" stroke-width="2"/>
<path d="M28.0001 27H36.8322V37H28.0001V27Z" fill="#FF7A7A" stroke="#CD3C3C" stroke-width="2"/>
<path d="M54 36V10H64V36H54Z" fill="#E5E5E5" stroke="#C4C4C4" stroke-width="2"/>
</svg>
