<svg width="79" height="79" viewBox="0 0 79 79" fill="none" xmlns="http://www.w3.org/2000/svg">
<rect x="1" y="1" width="76.9318" height="76.9231" rx="5" fill="white" stroke="#919191" stroke-width="2"/>
<circle cx="19.5" cy="60.5" r="6" fill="#E5E5E5" stroke="#C4C4C4" stroke-width="3"/>
<path d="M25 60L50.5 51.5" stroke="#C4C4C4" stroke-width="3.5"/>
<path d="M33.0427 22.2505C32.0765 22.227 31.2741 22.9911 31.2505 23.9573L30.8665 39.7026C30.8429 40.6689 31.6071 41.4712 32.5733 41.4948C33.5395 41.5184 34.3419 40.7542 34.3654 39.788L34.7068 25.7921L48.7026 26.1335C49.6689 26.1571 50.4712 25.3929 50.4948 24.4267C50.5184 23.4605 49.7542 22.6581 48.788 22.6346L33.0427 22.2505ZM54.2672 43.7931L34.2672 22.7931L31.7328 25.2069L51.7328 46.2069L54.2672 43.7931Z" fill="#CD3C3C"/>
<circle cx="28.5" cy="18.5" r="6" fill="#FF7A7A" stroke="#CD3C3C" stroke-width="3"/>
<circle cx="57.5" cy="50.5" r="6" fill="#E5E5E5" stroke="#C4C4C4" stroke-width="3"/>
</svg>
